<?xml version="1.0" standalone="no"?>
<!DOCTYPE svg PUBLIC "-//W3C//DTD SVG 20010904//EN"
 "http://www.w3.org/TR/2001/REC-SVG-20010904/DTD/svg10.dtd">
<svg version="1.0" xmlns="http://www.w3.org/2000/svg"
 width="500.000000pt" height="500.000000pt" viewBox="0 0 500.000000 500.000000"
 preserveAspectRatio="xMidYMid meet">
<metadata>
Created by potrace 1.11, written by Peter Selinger 2001-2013
</metadata>
<g transform="translate(0.000000,500.000000) scale(0.100000,-0.100000)"
fill="#000000" stroke="none">
<path d="M3277 4462 c-10 -2 -69 -39 -131 -82 -62 -44 -136 -88 -165 -99 -135
-51 -175 -129 -127 -247 15 -35 56 -84 71 -84 3 0 14 -8 25 -17 11 -10 26 -18
32 -18 19 0 20 -23 1 -29 -22 -7 -58 -60 -71 -106 -6 -19 -20 -64 -31 -100
-24 -73 -56 -197 -65 -250 -3 -19 -8 -46 -11 -60 -17 -78 -2 -174 30 -206 22
-23 3 -49 -37 -52 -18 -1 -96 -16 -173 -32 -190 -41 -184 -39 -239 -56 -27 -7
-52 -14 -55 -14 -3 0 -6 64 -6 142 0 79 -3 163 -7 188 -4 25 -10 65 -14 90
-13 91 -40 188 -59 214 -21 28 -49 33 -89 14 -31 -13 -33 -21 -41 -126 -15
-225 -101 -424 -235 -545 -54 -48 -159 -111 -206 -122 -156 -38 -168 -39 -248
-21 -75 18 -221 19 -286 1 -69 -18 -170 -6 -300 36 -134 44 -285 155 -362 267
-76 110 -134 274 -145 414 -7 79 -27 108 -75 108 -37 0 -78 -43 -78 -81 0 -16
0 -30 0 -31 -1 -2 -5 -21 -11 -43 -17 -68 -19 -312 -3 -395 53 -281 216 -478
489 -591 17 -7 33 -13 38 -14 4 -2 8 -3 10 -5 3 -2 10 -4 110 -29 43 -11 101
-23 130 -26 l52 -7 0 -116 c0 -141 6 -183 46 -304 27 -83 33 -128 26 -203 -1
-11 2 -42 7 -69 10 -66 70 -127 139 -143 82 -18 207 -10 264 18 83 41 123 150
88 242 -11 26 7 21 121 -34 232 -113 387 -232 432 -331 22 -48 81 -115 127
-144 23 -15 47 -19 106 -18 l76 1 11 -66 c6 -36 14 -95 17 -131 4 -36 8 -76
10 -90 2 -14 6 -52 10 -85 3 -33 8 -78 10 -100 15 -129 15 -133 1 -138 -23 -9
-44 -62 -42 -110 1 -45 21 -78 57 -98 51 -27 145 -15 186 23 21 19 26 20 81 9
86 -19 134 -3 197 63 28 29 56 69 63 90 12 33 11 45 -12 119 -51 164 -64 232
-51 258 12 22 54 189 71 284 5 22 9 43 10 48 1 4 2 15 3 25 1 15 16 17 158 17
209 0 318 16 481 71 83 28 260 112 282 134 3 3 17 11 33 19 15 8 27 18 27 23
0 4 6 8 14 8 8 0 16 3 18 8 2 4 26 24 55 45 l51 37 20 -27 c115 -166 164 -383
123 -543 -23 -87 -73 -200 -103 -234 -10 -11 -18 -26 -18 -33 0 -7 -4 -13 -10
-13 -5 0 -10 -7 -10 -15 0 -8 -4 -15 -9 -15 -4 0 -21 -18 -35 -41 -48 -71 -35
-125 36 -152 134 -51 240 -39 326 37 26 23 59 47 75 54 15 6 27 16 27 22 0 5
18 10 39 10 22 0 52 5 67 10 35 14 74 59 74 86 0 12 7 27 16 34 43 36 63 160
30 192 -7 8 -16 34 -19 58 -12 81 -10 304 3 370 10 52 9 79 -1 133 -7 37 -15
67 -19 67 -4 0 -13 14 -20 30 -7 17 -22 37 -33 45 l-21 15 24 92 c13 51 27 99
33 106 5 6 7 12 4 12 -3 0 -1 15 4 33 51 168 79 434 58 545 -9 50 -43 122 -57
122 -4 0 -27 19 -52 41 -233 210 -412 336 -487 343 -21 2 -56 -2 -77 -9 -44
-15 -107 -26 -241 -40 -63 -6 -99 -10 -180 -20 -27 -3 -68 -7 -90 -10 -22 -2
-35 -1 -28 3 20 13 44 81 57 161 11 73 12 110 6 231 -2 30 0 82 3 115 9 80
-14 161 -61 216 -33 38 -34 42 -17 52 73 41 107 153 69 232 -14 30 -102 120
-235 240 -30 28 -67 60 -81 73 -26 24 -51 31 -81 24z"/>
</g>
</svg>
