<?xml version="1.0" standalone="no"?>
<!DOCTYPE svg PUBLIC "-//W3C//DTD SVG 20010904//EN"
 "http://www.w3.org/TR/2001/REC-SVG-20010904/DTD/svg10.dtd">
<svg version="1.0" xmlns="http://www.w3.org/2000/svg"
 width="921.000000pt" height="921.000000pt" viewBox="0 0 921.000000 921.000000"
 preserveAspectRatio="xMidYMid meet">
<metadata>
Created by potrace 1.11, written by Peter Selinger 2001-2013
</metadata>
<g transform="translate(0.000000,921.000000) scale(0.100000,-0.100000)"
fill="#000000" stroke="none">
<path d="M4369 7393 c-13 -21 -71 -111 -130 -200 l-107 -162 -35 42 c-54 65
-68 80 -117 119 -202 161 -484 191 -718 77 -223 -109 -372 -345 -372 -589 0
-36 5 -83 10 -105 5 -22 11 -53 14 -68 7 -40 58 -147 97 -203 32 -46 137 -154
151 -154 3 0 13 -6 20 -13 37 -35 172 -91 246 -103 21 -3 38 -7 40 -9 5 -5
-228 -355 -236 -355 -6 0 -66 63 -147 155 -11 12 -63 69 -116 126 -53 57 -107
116 -120 130 -13 15 -67 73 -119 129 -52 57 -102 111 -111 122 -18 20 12 56
-406 -479 l-165 -213 -32 23 c-17 12 -38 27 -46 34 -92 74 -172 135 -174 132
-5 -6 -96 -160 -96 -163 0 -2 -23 -43 -51 -92 -80 -139 -605 -1057 -633 -1105
-13 -24 -57 -100 -96 -169 -40 -69 -84 -145 -98 -170 -14 -25 -50 -88 -80
-140 -30 -52 -66 -115 -80 -140 -84 -149 -140 -244 -183 -308 -27 -40 -49 -74
-49 -76 0 -3 -20 -37 -43 -78 -38 -64 -123 -234 -170 -338 -72 -163 -125 -380
-125 -515 -1 -214 80 -342 259 -409 65 -24 250 -60 369 -71 36 -3 81 -8 100
-10 467 -49 2047 -49 3160 0 52 2 165 7 250 10 204 9 281 12 485 21 94 4 566
7 1050 7 3303 -3 3177 -4 3199 10 68 45 127 141 144 237 13 70 6 195 -14 274
-9 33 -17 68 -19 77 -7 34 -60 158 -111 261 -73 146 -111 206 -294 472 -8 12
-51 69 -96 127 -44 57 -125 183 -180 279 -54 96 -103 182 -109 191 -5 10 -17
30 -26 46 -8 15 -98 172 -199 348 -100 176 -194 340 -208 365 -14 25 -34 59
-44 75 -10 17 -21 37 -25 45 -4 8 -42 75 -85 149 -43 73 -78 135 -78 137 0 2
-13 25 -29 52 -15 26 -40 68 -54 93 -13 24 -57 100 -96 167 -39 68 -84 147
-100 175 -15 29 -51 92 -80 140 -28 49 -51 90 -51 93 0 2 -16 28 -35 58 -19
30 -35 57 -35 60 0 3 -22 43 -49 88 -26 46 -60 103 -73 128 -14 25 -42 74 -63
110 -21 36 -44 77 -52 92 -8 15 -18 30 -22 32 -4 3 -25 -27 -47 -67 -21 -39
-55 -101 -75 -137 -20 -36 -53 -96 -74 -135 -218 -399 -193 -363 -256 -359
-30 2 -86 5 -126 8 l-72 4 -93 -154 c-51 -84 -95 -154 -98 -154 -4 0 -46 66
-100 159 -8 14 -30 48 -47 74 -18 26 -33 49 -33 51 0 2 -74 121 -163 264 -90
143 -167 266 -171 273 -3 8 -42 70 -86 139 -43 69 -105 167 -137 218 -32 51
-65 104 -73 117 -8 13 -35 55 -59 94 -24 39 -48 71 -53 71 -5 0 -81 -27 -170
-60 l-161 -61 -16 23 c-9 12 -34 53 -56 90 -125 213 -308 508 -315 508 -5 0
-19 -17 -31 -37z m56 -365 c7 -35 16 -80 19 -99 3 -19 28 -149 57 -289 47
-235 54 -272 58 -308 0 -6 11 -21 24 -31 20 -18 175 -103 254 -140 19 -9 33
-24 37 -40 3 -14 14 -57 25 -96 11 -38 51 -187 90 -330 39 -143 87 -316 106
-385 18 -69 39 -145 46 -170 7 -25 14 -49 15 -55 11 -39 37 -132 39 -140 1 -5
5 -17 8 -25 3 -8 10 -35 16 -60 6 -25 22 -85 35 -134 14 -49 21 -85 17 -80 -5
5 -60 86 -123 179 -404 599 -458 678 -591 874 l-29 43 -24 -27 c-12 -15 -65
-72 -116 -128 -51 -55 -118 -128 -148 -161 -30 -32 -66 -71 -80 -86 -14 -14
-61 -66 -105 -115 -96 -106 -219 -234 -212 -220 3 6 8 39 12 75 4 36 8 67 10
70 2 3 6 29 10 59 4 30 8 63 11 74 2 11 6 43 9 71 3 28 7 62 10 76 12 64 13
80 7 80 -4 0 -36 -36 -72 -80 -36 -43 -68 -79 -72 -79 -5 -1 -8 23 -9 52 0 28
-1 93 -2 143 l-2 92 -55 7 c-30 4 -75 9 -100 12 -25 3 -46 6 -47 6 0 1 35 61
78 132 43 72 82 137 86 145 4 8 18 33 32 55 24 40 144 242 165 280 6 11 19 31
27 45 15 22 248 415 295 497 83 143 168 282 172 279 2 -2 9 -33 17 -68z m966
-818 c129 -206 239 -383 244 -393 17 -29 166 -269 201 -322 l33 -50 6 -255 c4
-140 9 -258 11 -262 2 -3 0 -9 -4 -12 -5 -3 -62 32 -128 78 l-119 83 -12 74
c-7 41 -15 90 -18 109 -3 19 -10 60 -15 90 -5 30 -12 73 -16 95 -16 109 -27
132 -172 357 -81 126 -173 269 -205 319 l-58 90 4 187 c5 198 5 198 10 191 2
-2 109 -173 238 -379z m1598 -202 c51 -84 97 -162 104 -172 7 -11 26 -43 43
-70 24 -39 48 -117 104 -331 39 -154 74 -288 76 -297 3 -10 68 -102 145 -205
77 -103 147 -197 155 -208 8 -11 94 -126 190 -255 97 -129 185 -247 195 -262
l20 -28 -394 0 -394 0 -84 66 c-46 36 -115 89 -154 119 -38 30 -189 148 -335
262 l-265 208 0 260 0 260 90 -1 c50 0 143 -4 208 -8 109 -7 117 -6 118 11 0
10 2 27 3 38 2 11 6 56 10 100 4 44 9 94 11 110 2 17 7 57 10 90 12 122 16
151 20 190 2 22 7 72 11 110 4 39 8 81 9 95 2 14 3 35 4 48 1 12 3 22 5 22 2
0 45 -69 95 -152z m-4074 -447 c143 -182 262 -330 265 -331 3 0 10 9 15 20 31
65 111 210 115 210 3 0 30 -48 61 -108 31 -59 105 -197 164 -307 59 -110 124
-231 145 -270 61 -117 134 -253 213 -400 42 -77 75 -141 73 -142 -1 -2 -49 42
-106 97 -66 64 -107 97 -116 92 -7 -4 -32 -25 -56 -47 -23 -23 -89 -83 -146
-134 l-103 -93 -45 7 c-25 3 -54 8 -64 10 -9 2 -33 6 -51 9 -19 3 -45 8 -59
11 -14 3 -41 8 -60 11 -19 3 -46 7 -60 10 -129 24 -194 35 -247 45 -35 6 -64
16 -64 23 -1 6 -2 16 -3 21 -1 6 -5 35 -10 65 -5 30 -10 62 -11 70 -2 8 -6 44
-10 80 -4 36 -8 67 -10 70 -2 3 -6 34 -10 70 -4 36 -9 73 -10 82 -2 9 -6 45
-10 80 -3 35 -8 74 -10 88 -3 14 -7 68 -10 120 -4 83 -6 95 -23 98 -18 3 -75
-31 -156 -93 l-37 -28 5 24 c7 34 15 86 21 139 6 50 34 261 40 300 2 14 6 50
10 80 3 30 8 66 10 80 2 14 7 45 10 70 3 25 8 56 10 70 2 14 7 48 10 75 3 28
8 59 10 70 2 11 4 25 4 30 1 13 4 10 306 -374z m-1180 -133 c-5 -15 -16 -93
-30 -213 -4 -32 -8 -66 -10 -75 -4 -23 -14 -99 -20 -150 -3 -25 -7 -56 -10
-70 -2 -14 -6 -50 -10 -80 -8 -69 -14 -107 -21 -145 -5 -27 4 -21 85 60 l91
90 0 -167 0 -166 -107 -83 c-60 -46 -110 -85 -113 -89 -7 -9 -67 -50 -73 -50
-5 0 -15 9 -145 133 l-72 68 94 207 c52 114 105 232 119 262 58 127 172 379
193 428 13 28 26 52 29 52 2 0 3 -6 0 -12z"/>
</g>
</svg>
