<?xml version="1.0" standalone="no"?>
<!DOCTYPE svg PUBLIC "-//W3C//DTD SVG 20010904//EN"
 "http://www.w3.org/TR/2001/REC-SVG-20010904/DTD/svg10.dtd">
<svg version="1.0" xmlns="http://www.w3.org/2000/svg"
 width="550.000000pt" height="550.000000pt" viewBox="0 0 550.000000 550.000000"
 preserveAspectRatio="xMidYMid meet">
<metadata>
Created by potrace 1.11, written by Peter Selinger 2001-2013
</metadata>
<g transform="translate(0.000000,550.000000) scale(0.100000,-0.100000)"
fill="#000000" stroke="none">
<path d="M525 5220 c-1 -3 -2 -199 -2 -436 0 -236 -3 -435 -6 -442 -5 -8 -67
-11 -205 -11 -108 1 -211 0 -229 0 l-32 -1 1 -330 0 -330 42 -1 c22 0 128 0
234 -1 171 0 192 -2 193 -17 0 -9 2 -421 3 -916 2 -495 7 -916 10 -935 25
-126 73 -235 139 -315 48 -58 59 -67 141 -118 132 -82 309 -112 651 -110 94 0
213 4 265 8 l95 7 0 -501 c0 -331 3 -501 10 -502 5 -1 196 -2 423 -3 l412 -1
1 30 c0 16 1 301 1 633 0 331 2 602 3 602 2 0 27 -23 57 -51 128 -122 278
-198 478 -243 102 -23 156 -29 290 -28 452 1 821 248 1040 695 29 59 53 107
54 107 1 0 1 -209 1 -465 l0 -465 422 0 c396 0 423 1 424 18 5 102 3 4101 -2
4112 -6 13 -61 15 -416 15 -224 0 -413 -3 -418 -7 -7 -4 -10 -284 -10 -817 0
-654 -2 -808 -12 -794 -7 9 -13 22 -13 29 0 13 -45 102 -95 189 -81 140 -233
302 -371 396 -195 131 -401 191 -650 190 -72 0 -147 -3 -168 -6 -127 -18 -148
-22 -230 -46 -139 -41 -254 -108 -353 -204 l-53 -51 -1 30 c0 17 -1 69 -2 115
l-2 84 -637 0 -638 0 0 444 c0 243 -3 444 -7 444 -25 4 -835 3 -838 -1z m2853
-1544 c12 -3 31 -8 42 -10 70 -16 169 -81 235 -155 66 -73 149 -260 169 -381
21 -126 28 -447 13 -553 -45 -299 -143 -480 -312 -578 -137 -79 -321 -92 -485
-34 -189 67 -342 300 -375 570 -4 33 -9 69 -11 80 -6 31 -5 322 1 390 23 246
115 456 247 566 101 84 218 121 363 115 50 -3 100 -7 113 -10z m-1556 -20 c2
-6 4 -378 4 -826 l-1 -815 -155 -1 c-223 -2 -264 17 -288 131 -7 32 -11 309
-12 786 l-1 737 225 0 c160 0 226 -3 228 -12z"/>
</g>
</svg>
