<?xml version="1.0" standalone="no"?>
<!DOCTYPE svg PUBLIC "-//W3C//DTD SVG 20010904//EN"
 "http://www.w3.org/TR/2001/REC-SVG-20010904/DTD/svg10.dtd">
<svg version="1.0" xmlns="http://www.w3.org/2000/svg"
 width="260.000000pt" height="260.000000pt" viewBox="0 0 260.000000 260.000000"
 preserveAspectRatio="xMidYMid meet">
<metadata>
Created by potrace 1.11, written by Peter Selinger 2001-2013
</metadata>
<g transform="translate(0.000000,260.000000) scale(0.100000,-0.100000)"
fill="#000000" stroke="none">
<path d="M470 2497 c0 -6 -3 -8 -6 -4 -7 7 -110 -28 -142 -49 -14 -9 -21 -11
-17 -4 5 8 0 7 -14 -2 -12 -7 -21 -18 -21 -25 0 -7 -5 -13 -12 -13 -6 0 -8 -3
-5 -7 4 -3 -2 -13 -14 -21 -11 -8 -18 -20 -15 -27 3 -8 0 -15 -5 -17 -17 -6
-48 -112 -35 -120 6 -5 7 -8 1 -8 -5 0 -11 -11 -11 -25 -1 -14 2 -25 6 -25 5
0 7 -8 5 -17 -1 -10 4 -28 11 -40 8 -13 12 -23 8 -23 -20 0 83 -110 140 -150
17 -12 22 -27 24 -72 2 -35 -2 -58 -8 -58 -5 0 -9 -3 -8 -7 1 -5 -4 -21 -10
-36 -7 -16 -12 -33 -12 -38 0 -5 -4 -9 -10 -9 -5 0 -9 -3 -8 -7 2 -5 -6 -28
-16 -53 -11 -25 -19 -48 -18 -52 1 -5 -3 -8 -8 -8 -6 0 -10 -9 -10 -20 0 -11
-4 -20 -9 -20 -6 0 -8 -9 -6 -19 2 -11 -3 -25 -11 -31 -7 -7 -12 -16 -9 -20 3
-5 -2 -16 -11 -24 -8 -9 -13 -16 -10 -16 3 0 -2 -16 -10 -36 -11 -26 -12 -40
-5 -47 8 -8 11 -7 11 2 0 8 6 11 15 7 8 -3 15 -2 15 2 0 4 11 12 24 18 22 10
24 9 21 -8 -3 -11 -11 -25 -18 -32 -23 -19 -82 -139 -86 -174 -2 -28 2 -34 28
-45 17 -7 28 -16 24 -20 -3 -4 0 -7 7 -7 7 0 3 -10 -11 -23 -41 -39 -89 -96
-89 -105 0 -4 8 -17 18 -28 19 -20 25 -54 10 -54 -5 0 -7 -4 -4 -8 3 -5 -4
-25 -14 -45 -11 -21 -17 -37 -13 -37 5 0 2 -4 -4 -8 -7 -4 -14 -17 -16 -27 -1
-11 -6 -26 -10 -32 -5 -7 -5 -13 -1 -13 3 0 -1 -12 -11 -26 -11 -18 -12 -24
-4 -18 12 6 12 5 1 -8 -16 -21 -25 -85 -12 -93 6 -4 7 -11 4 -17 -4 -6 -3 -9
2 -6 10 6 36 -17 28 -24 -2 -3 12 -13 31 -24 19 -10 35 -25 35 -32 0 -7 4 -11
9 -8 5 3 11 -1 15 -9 3 -8 12 -15 21 -15 8 0 15 -4 15 -10 0 -5 7 -10 16 -10
8 0 13 -4 10 -9 -7 -11 22 -23 37 -14 6 4 8 0 4 -10 -5 -12 -1 -17 12 -17 10
0 24 -7 31 -15 7 -8 16 -12 21 -9 5 3 9 0 9 -6 0 -6 5 -8 13 -4 8 5 7 2 -2 -9
-12 -15 -12 -17 3 -11 9 3 16 1 16 -5 0 -6 5 -11 11 -11 5 0 7 6 4 13 -4 6 3
1 15 -13 12 -14 19 -19 15 -12 -3 6 -2 12 3 12 6 0 13 -7 16 -16 3 -8 10 -12
16 -9 5 3 10 1 10 -5 0 -7 7 -10 15 -7 8 4 17 1 21 -5 5 -7 2 -8 -6 -3 -8 5
-11 4 -7 -3 4 -5 18 -9 32 -7 15 1 25 -3 25 -10 0 -7 7 -16 16 -19 8 -3 12 -2
9 4 -10 17 7 11 22 -8 9 -10 11 -11 7 -2 -6 12 -4 12 12 -1 10 -9 29 -15 41
-14 12 1 20 -2 17 -7 -3 -4 3 -8 13 -8 11 0 25 -6 32 -12 11 -11 12 -10 6 1
-5 9 5 5 23 -8 25 -17 31 -19 25 -6 -5 15 -3 16 18 3 13 -7 27 -17 31 -23 5
-6 8 -5 8 2 0 14 31 6 42 -11 5 -7 8 -6 8 3 0 11 4 10 16 -5 15 -18 15 -18 10
0 -6 17 -5 17 10 5 10 -8 27 -13 38 -11 17 2 18 1 6 -7 -8 -6 -10 -11 -5 -11
6 0 16 5 23 12 9 9 12 9 12 -1 0 -8 7 -11 20 -8 11 3 20 1 20 -4 0 -5 5 -9 11
-9 5 0 8 4 5 8 -3 5 1 9 9 9 8 0 12 -4 9 -8 -2 -4 97 -7 221 -6 188 2 227 4
235 17 9 13 10 13 10 0 0 -13 1 -13 10 0 7 11 10 11 10 2 0 -7 5 -10 10 -7 6
4 7 12 4 18 -5 9 -3 9 6 0 11 -10 16 -9 27 5 8 9 12 11 8 4 -6 -13 3 -12 60 3
17 4 36 12 43 18 10 8 16 7 23 -4 7 -11 9 -10 9 6 0 17 2 17 10 5 6 -9 10 -10
10 -3 0 6 9 10 20 8 13 -3 18 0 14 7 -5 7 -1 9 9 5 10 -4 17 -2 17 5 0 7 4 7
14 -1 11 -9 16 -9 22 0 5 8 3 9 -6 4 -9 -5 -11 -4 -6 3 4 7 18 12 31 12 13 0
27 5 30 11 4 6 13 8 21 5 8 -3 14 -1 14 4 0 6 6 9 13 8 6 -2 11 2 10 8 -1 7 6
10 17 7 12 -3 20 0 20 6 0 7 5 9 10 6 6 -3 10 -1 10 5 0 6 5 8 10 5 6 -3 10 0
10 7 0 9 3 9 10 -2 8 -13 10 -13 10 2 0 11 5 15 15 12 8 -4 15 -1 15 7 0 7 3
10 6 6 3 -3 14 3 25 14 11 11 25 17 31 13 8 -5 9 -1 4 12 -6 15 -4 16 5 7 9
-9 16 -7 31 10 11 12 17 15 13 7 -4 -8 2 -5 13 7 11 12 22 19 26 16 3 -3 8 2
12 11 3 9 10 13 15 10 5 -3 12 2 15 10 3 9 12 16 19 16 7 0 16 7 19 16 4 9 13
14 22 10 8 -3 12 -2 9 4 -3 5 7 16 22 24 15 8 24 15 20 16 -13 0 20 30 33 30
6 0 8 4 5 10 -6 9 7 14 27 11 4 0 5 6 2 13 -3 9 3 17 16 21 12 4 19 9 16 12
-3 4 -1 12 5 20 6 7 7 13 3 13 -5 0 -10 21 -11 48 -1 26 -4 57 -7 70 -3 12 -8
31 -11 43 -2 12 -9 27 -16 35 -6 8 -8 14 -4 14 4 0 0 11 -9 25 -9 14 -13 25
-9 25 4 0 -2 7 -13 16 -10 8 -13 12 -5 8 8 -4 3 8 -12 27 -16 22 -23 39 -18
48 5 7 11 12 15 12 34 -5 38 -1 31 36 -4 21 -10 40 -14 43 -3 3 -17 22 -31 42
-14 21 -28 38 -32 38 -5 0 -8 7 -8 16 0 8 -4 12 -10 9 -5 -3 -10 0 -10 9 0 8
16 20 35 26 19 6 37 15 40 20 7 11 -23 80 -35 80 -6 0 -10 5 -10 10 0 6 -16
26 -35 46 -19 19 -35 39 -35 44 0 5 -9 14 -20 20 -26 14 -26 40 -1 40 31 0 33
17 6 44 -14 14 -22 26 -18 26 4 0 3 4 -3 8 -17 11 -61 105 -58 125 1 9 -2 17
-6 17 -5 0 -7 9 -5 20 2 11 0 20 -5 20 -5 0 -9 8 -8 18 0 9 -3 33 -6 52 -9 50
-12 90 -6 88 15 -6 160 111 160 128 0 7 9 16 20 19 11 4 18 11 15 16 -4 5 1
12 10 15 22 9 48 76 45 122 -3 62 -5 72 -17 72 -8 0 -12 4 -9 9 3 5 -12 28
-34 52 -22 24 -40 48 -40 52 0 5 -4 5 -10 2 -5 -3 -10 -2 -10 4 0 12 -76 84
-92 87 -30 5 -43 9 -49 17 -3 4 -22 9 -42 10 -21 1 -37 5 -37 8 0 11 -124 8
-138 -4 -10 -8 -16 -7 -23 4 -6 10 -9 10 -9 2 0 -7 -3 -12 -7 -11 -5 1 -18 -3
-30 -10 -13 -7 -23 -9 -23 -5 0 4 -7 -2 -15 -13 -8 -10 -15 -15 -15 -11 0 4
-15 -9 -32 -29 -18 -21 -32 -41 -31 -46 2 -4 -2 -8 -7 -8 -6 0 -10 -7 -10 -16
0 -22 -32 -53 -38 -36 -2 6 -12 12 -23 12 -10 0 -19 5 -19 11 0 6 -6 9 -14 6
-8 -3 -20 1 -27 9 -6 8 -14 12 -17 9 -3 -3 -11 0 -19 7 -7 6 -16 8 -20 5 -3
-3 -17 0 -32 7 -14 7 -34 12 -43 11 -10 -2 -20 1 -24 6 -3 5 -10 7 -15 4 -5
-4 -9 -2 -9 3 0 5 -14 8 -30 7 -17 -1 -33 1 -35 5 -2 3 -57 5 -122 3 -150 -4
-163 -5 -163 -14 0 -4 -11 -6 -25 -4 -14 1 -28 -2 -31 -7 -3 -4 -10 -6 -15 -3
-5 4 -9 1 -9 -5 0 -6 -4 -9 -9 -5 -5 3 -13 0 -16 -6 -4 -5 -13 -8 -21 -5 -8 3
-14 1 -14 -4 0 -6 -3 -9 -7 -8 -5 1 -28 -9 -53 -22 -25 -13 -48 -23 -52 -22
-5 1 -8 -2 -8 -7 0 -4 -10 -8 -22 -7 -13 1 -22 7 -21 14 2 7 -2 12 -8 12 -5 0
-8 4 -4 9 7 12 -31 80 -59 104 -11 11 -20 24 -18 31 2 6 0 8 -3 4 -4 -4 -25 2
-46 13 -28 14 -39 16 -39 7 0 -10 -2 -10 -8 0 -10 16 -142 15 -142 -1z m1035
-2397 c3 -5 1 -10 -4 -10 -6 0 -11 5 -11 10 0 6 2 10 4 10 3 0 8 -4 11 -10z"/>
</g>
</svg>
