<svg xmlns="http://www.w3.org/2000/svg" version="1.1" id="Layer_1" x="0px" y="0px" width="70px" height="70px" viewBox="0 0 70 70" enable-background="new 0 0 70 70" xml:space="preserve"><metadata/><path fill="#1084C4" d="M33,34.7c-9.4,1.6-22.2,2.899-31.9,5.7c-0.1,0-0.1,0.1,0,0.1c23.3-0.7,48.5-0.6,67.3,0l0.1-0.1   c-0.4-2.2-2.2-4.7-7.4-4.7h-3L58,35.8c0.8,2.101-1.5,3.5-3.1,2.3C54.3,37.6,53.6,36.2,55.3,35.1c1.2-0.9,3.101-2.1,4.2-2.8   c4-2.5,3.4-6.2-1.9-6.6c-12.8-1-35.6-2.3-44.7-3c-0.2,0-0.3,0.1-0.2,0.2c7.5,4,14.3,4.4,21.7,7.2C38.9,31.7,38.1,33.8,33,34.7"/><rect width="70" fill="none" height="70"/></svg>