<svg xmlns="http://www.w3.org/2000/svg" version="1.1" id="Layer_1" x="0px" y="0px" width="70px" height="70px" viewBox="0 0 70 70" enable-background="new 0 0 70 70" xml:space="preserve"><metadata/><rect width="70" fill="none" height="70"/><g id="g10" transform="matrix(1.25,0,0,-1.25,-355.64249,617.57738)"><g id="g72" transform="matrix(2.2133966,0,0,2.2133966,72.763169,-317.04835)"><g id="g74"><g id="g80"><g id="g82"><linearGradient id="path92_1_" gradientTransform="matrix(295.9131 170.8454 170.8454 -295.9131 -117866.6094 115865.6094)" gradientUnits="userSpaceOnUse" x1="129.9361" x2="130.5159" y1="465.412" y2="465.412"><stop offset="0" style="stop-color:#A61F24"/><stop offset="0.5" style="stop-color:#DC1F2F"/><stop offset="1" style="stop-color:#DC1F2F"/></linearGradient><path id="path92" fill="url(#path92_1_)" d="M100.3,348.8l-4.3-4.4l0,0c15.1,0,18.6,3.5,20.7,8.4l0,0l1.7,4.5        C113.3,357.1,105.6,354.2,100.3,348.8"/></g></g></g></g><g id="g94" transform="matrix(2.2133966,0,0,2.2133966,72.763169,-317.04835)"><g id="g96"><g id="g102"><g id="g104"><linearGradient id="path114_1_" gradientTransform="matrix(198.6955 114.7168 114.7168 -198.6955 -79127.2188 78014.25)" gradientUnits="userSpaceOnUse" x1="129.8305" x2="130.4076" y1="465.8064" y2="465.8064"><stop offset="0" style="stop-color:#EC7523"/><stop offset="0.85" style="stop-color:#FACE10"/><stop offset="1" style="stop-color:#FACE10"/></linearGradient><path id="path114" fill="url(#path114_1_)" d="M110.4,359l-4.9-4.9c4.6,3.3,9.3,5.3,13.9,5.9l0,0l1.1,2.9        C113.7,362.9,112.7,361.4,110.4,359"/></g></g></g></g></g><rect x="0" y="0" width="70" fill="none" height="70"/></svg>