<svg xmlns="http://www.w3.org/2000/svg" version="1.1" id="Layer_1" x="0px" y="0px" width="127" height="127" viewBox="0 0 127.6 127.6" xml:space="preserve" style="enable-background:new 0 0 127.6 127.6;"><style type="text/css">
	.st0{fill:#21409A;}
	.st1{fill:#EF4060;}
</style><g><path d="M44.1,80.6V67.5c48.9-17.8,48.9-17.8,51.5-18.7c4.3-1.6,5.1-3.1,3.2-3.8c1.9,0.7,1.9,0.9,1.9,6.7   c0,6.2-0.1,8.3-2.6,9.3L44.1,80.6z M56.7,110.7c0-2.7,0.3-5-2.1-4.2l-10.4,3.8v13l10.1-3.7c2.5-0.9,2.4-3.5,2.4-5.8V110.7z    M72.9,83.4c0-2.7,0.3-5-2.1-4.2l-26.6,9.7l0,13.1l26-9.5c2.6-0.9,2.7-2.7,2.7-5.5V83.4z M98.9,23.7c2,0.7,1.2,2.1-3.2,3.7   C93.6,28.2,50.2,43.9,34,49.7v0c-0.4,0.2-0.8,0.3-1.2,0.4c-1.5,0.5-2.7,1-3.5,1.3c-1.7,0.5-2.4,0.3-2.5-1.2c0,1,0,3,1.7,3.6   L42.7,59c0,0,1,0.3,2,0c2.3-0.8,11.7-4.3,53.5-19.4c2.6-0.9,2.7-3,2.7-9.1C100.8,24.6,100.8,24.4,98.9,23.7" class="st0"/><g><path d="M84.5,52.8c0,0,10.4-3.8,11.2-4.1c4.3-1.6,5.1-3.1,3.2-3.8c0.1,0,0.2,0.1,0.3,0.1c-0.2-0.1-0.4-0.2-0.6-0.2    c-0.6-0.2-7.5-2.7-7.5-2.7l-18,6.5L84.5,52.8z M55.1,42.1l18-6.5c0,0-37-13.4-43.5-15.8c-1.6-0.6-2.8-1.2-2.8,0.5v6.6    c0,3.7,1.8,5.6,5.4,6.9L55.1,42.1z" class="st1"/><path d="M26.8,50.2c0.1,1.6,0.8,1.8,2.5,1.2c0.8-0.3,2-0.7,3.5-1.3c0.4-0.1,0.8-0.3,1.2-0.4v0c2.6-1,6-2.2,9.8-3.5    C37.5,43.9,32.3,42,29.6,41c-1.6-0.6-2.8-1.2-2.8,0.5L26.8,50.2c0,0.2,0,0.3,0,0.5C26.8,50.5,26.8,50.4,26.8,50.2z" class="st1"/><path d="M49.6,18.9l34.7,12.6c6.1-2.2,10.7-3.9,11.3-4.1c4.3-1.6,5.2-3,3.2-3.7C82.1,17.6,53.5,7.2,47,4.9    c-1.6-0.6-2.8-1.2-2.8,0.5v6.6C44.1,15.6,46.1,17.6,49.6,18.9z" class="st1"/></g></g></svg>