<svg xmlns="http://www.w3.org/2000/svg" version="1.1" id="Layer_1" x="0px" y="0px" width="80px" height="32px" viewBox="0 0 80 32" enable-background="new 0 0 80 32" xml:space="preserve" class="tierid_0 locale_en_US"><g><g><path fill="#15375F" d="M0.799,7.186h9.084L9.333,9.24H3.248v3.732h5.767v2.054H3.248v3.934h6.538v2.054H0.799V7.186z"/></g><g><path fill="#15375F" d="M13.996,16.356l-3.337-4.464h2.758l2.141,3.057l1.987-3.057h2.671l-3.298,4.6l3.471,4.522h-2.806    l-2.209-3.104l-1.995,3.104H10.64L13.996,16.356z"/><path fill="#15375F" d="M21.575,11.853l1.978,0.415c0.063-0.039,0.175-0.095,0.333-0.169c0.157-0.074,0.352-0.146,0.583-0.217    c0.231-0.07,0.495-0.134,0.79-0.188c0.296-0.055,0.618-0.082,0.965-0.082c0.694,0,1.327,0.119,1.899,0.357    c0.572,0.238,1.062,0.571,1.471,0.998s0.725,0.937,0.95,1.528c0.226,0.592,0.338,1.244,0.338,1.958    c0,0.694-0.112,1.34-0.338,1.934c-0.226,0.595-0.542,1.106-0.95,1.533c-0.408,0.428-0.898,0.764-1.471,1.008    s-1.205,0.367-1.899,0.367c-0.515,0-0.973-0.054-1.374-0.159c-0.402-0.107-0.716-0.212-0.94-0.313v4.262h-2.334V11.853z     M23.909,18.786c0.199,0.104,0.482,0.215,0.849,0.333c0.367,0.119,0.762,0.179,1.187,0.179c0.405,0,0.77-0.072,1.095-0.217    c0.324-0.145,0.595-0.343,0.81-0.594c0.215-0.25,0.379-0.551,0.492-0.901c0.112-0.35,0.168-0.728,0.168-1.133    c0-0.411-0.056-0.791-0.168-1.138c-0.113-0.347-0.277-0.646-0.492-0.896c-0.215-0.251-0.485-0.449-0.81-0.594    c-0.325-0.144-0.689-0.217-1.095-0.217c-0.425,0-0.819,0.06-1.187,0.178c-0.366,0.119-0.649,0.23-0.849,0.333V18.786z"/><path fill="#15375F" d="M37.083,21.295c-0.798,0-1.506-0.128-2.127-0.382c-0.62-0.254-1.144-0.602-1.571-1.041    c-0.428-0.44-0.754-0.953-0.979-1.539c-0.225-0.585-0.337-1.211-0.337-1.88c0-0.643,0.101-1.257,0.304-1.842    c0.202-0.585,0.498-1.1,0.887-1.543c0.39-0.444,0.866-0.797,1.433-1.061c0.565-0.264,1.212-0.396,1.938-0.396    c0.521,0,1.037,0.08,1.548,0.241c0.512,0.161,0.97,0.422,1.374,0.781c0.406,0.36,0.733,0.826,0.984,1.398s0.376,1.267,0.376,2.083    v0.83H34.44c0.07,0.759,0.349,1.347,0.834,1.765c0.485,0.417,1.139,0.626,1.963,0.626c0.359,0,0.752-0.051,1.176-0.154    c0.425-0.103,0.836-0.276,1.235-0.521l0.713,1.805c-0.226,0.134-0.473,0.253-0.742,0.356c-0.271,0.102-0.55,0.189-0.84,0.26    c-0.289,0.07-0.578,0.124-0.867,0.159S37.346,21.295,37.083,21.295z M38.626,15.383c0-0.328-0.057-0.617-0.169-0.868    c-0.113-0.25-0.261-0.459-0.444-0.626c-0.183-0.167-0.396-0.292-0.636-0.376c-0.241-0.083-0.49-0.125-0.748-0.125    c-0.296,0-0.57,0.052-0.824,0.154c-0.254,0.104-0.474,0.245-0.66,0.424c-0.187,0.181-0.338,0.393-0.453,0.637    c-0.116,0.244-0.187,0.505-0.212,0.781H38.626z"/></g><g><path fill="#15375F" d="M49.069,7.784l2.334-0.868v14.253l-1.978-0.531c-0.07,0.039-0.185,0.096-0.342,0.17    c-0.158,0.073-0.351,0.146-0.579,0.217s-0.491,0.133-0.791,0.188c-0.299,0.056-0.617,0.083-0.958,0.083    c-0.695,0-1.328-0.123-1.9-0.367c-0.573-0.244-1.062-0.58-1.471-1.008c-0.408-0.427-0.725-0.938-0.95-1.533    c-0.226-0.594-0.338-1.239-0.338-1.934c0-0.714,0.112-1.366,0.338-1.958c0.226-0.591,0.542-1.101,0.95-1.528    s0.897-0.76,1.471-0.998c0.572-0.238,1.205-0.357,1.9-0.357c0.513,0,0.969,0.056,1.364,0.169c0.395,0.112,0.712,0.22,0.949,0.322    V7.784z M49.069,14.12c-0.199-0.103-0.484-0.214-0.854-0.333c-0.37-0.119-0.763-0.178-1.181-0.178c-0.411,0-0.778,0.073-1.1,0.217    c-0.321,0.145-0.592,0.343-0.811,0.594c-0.219,0.25-0.383,0.549-0.491,0.896c-0.109,0.348-0.164,0.727-0.164,1.138    c0,0.405,0.055,0.783,0.164,1.133c0.108,0.351,0.272,0.651,0.491,0.901c0.219,0.251,0.489,0.449,0.811,0.594    s0.688,0.217,1.1,0.217c0.418,0,0.811-0.06,1.181-0.179c0.369-0.118,0.654-0.229,0.854-0.333V14.12z"/></g><g><path fill="#15375F" d="M54.497,10.118c-0.199,0-0.386-0.039-0.56-0.116c-0.173-0.077-0.325-0.182-0.457-0.313    c-0.132-0.131-0.235-0.286-0.31-0.463c-0.073-0.176-0.11-0.368-0.11-0.573c0-0.2,0.037-0.389,0.11-0.569    c0.074-0.18,0.178-0.335,0.31-0.467s0.284-0.236,0.457-0.313c0.174-0.078,0.36-0.116,0.56-0.116s0.39,0.039,0.569,0.116    c0.18,0.077,0.336,0.182,0.468,0.313s0.236,0.288,0.313,0.467c0.077,0.18,0.115,0.37,0.115,0.569c0,0.206-0.038,0.397-0.115,0.573    c-0.077,0.177-0.182,0.332-0.313,0.463c-0.132,0.132-0.288,0.236-0.468,0.313C54.887,10.079,54.696,10.118,54.497,10.118z     M53.33,11.892h2.335v9.122H53.33V11.892z"/><path fill="#15375F" d="M64.787,20.638c-0.07,0.039-0.184,0.096-0.342,0.17c-0.158,0.073-0.35,0.146-0.578,0.217    s-0.492,0.133-0.792,0.188c-0.299,0.056-0.618,0.083-0.958,0.083c-0.694,0-1.328-0.123-1.901-0.367    c-0.571-0.244-1.062-0.58-1.47-1.008c-0.407-0.427-0.725-0.938-0.949-1.533c-0.225-0.594-0.338-1.239-0.338-1.934    c0-0.714,0.113-1.366,0.338-1.958c0.225-0.591,0.542-1.101,0.949-1.528c0.408-0.427,0.898-0.76,1.47-0.998    c0.573-0.238,1.207-0.357,1.901-0.357c0.34,0,0.659,0.027,0.958,0.082c0.3,0.054,0.563,0.118,0.792,0.188    c0.229,0.071,0.42,0.143,0.578,0.217s0.271,0.13,0.342,0.169l1.978-0.415v9.316L64.787,20.638z M64.431,14.12    c-0.199-0.103-0.482-0.214-0.854-0.333c-0.369-0.119-0.763-0.178-1.181-0.178c-0.411,0-0.778,0.073-1.1,0.217    c-0.322,0.145-0.591,0.343-0.811,0.594c-0.218,0.25-0.382,0.549-0.491,0.896c-0.109,0.348-0.164,0.727-0.164,1.138    c0,0.405,0.055,0.783,0.164,1.133c0.109,0.351,0.273,0.651,0.491,0.901c0.22,0.251,0.488,0.449,0.811,0.594    c0.321,0.145,0.688,0.217,1.1,0.217c0.418,0,0.812-0.06,1.181-0.179c0.371-0.118,0.654-0.229,0.854-0.333V14.12z"/></g><polygon points="79.201,11.886 75.806,11.886 75.806,8.492 73.472,8.492 73.472,11.886 70.077,11.886    70.077,14.219 73.472,14.219 73.472,17.614 75.806,17.614 75.806,14.219 79.201,14.219  " fill="#FFC713"/><path fill="#15375F" d="M68.656,19.251c-0.587,0-1.091,0.44-1.091,1.11c0,0.63,0.453,1.104,1.091,1.104   c0.579,0,1.084-0.439,1.084-1.104C69.74,19.691,69.235,19.251,68.656,19.251 M68.656,21.358c-0.573,0-0.931-0.449-0.931-0.997   c0-0.589,0.408-0.999,0.931-0.999c0.516,0,0.923,0.41,0.923,0.999C69.579,20.948,69.172,21.358,68.656,21.358"/><path fill="#15375F" d="M69.171,20.08c0-0.265-0.164-0.377-0.479-0.377h-0.496v1.311h0.215v-0.56h0.202l0.339,0.56h0.243   l-0.366-0.575C69.024,20.415,69.171,20.317,69.171,20.08 M68.395,20.269v-0.403h0.273c0.139,0,0.301,0.02,0.301,0.187   c0,0.202-0.151,0.217-0.32,0.217H68.395z"/></g></svg>